# xmcd
#
# Track frame offsets:
#	150
#	7947
#	18597
#	29771
#	45221
#	57070
#	69445
#	82869
#	93894
#	104920
#	116695
#	128394
#	139868
#	151943
#	164317
#	174817
#	180868
#	191666
#	205015
#	217991
#	231121
#	245071
#
# Disc length: 3535 seconds
#
# Revision: 1
# Processed by: cddbd v1.5.1PL0 Copyright (c) Steve Scherf et al.
# Submitted via: CDex 1.50Beta5
#
DISCID=120dcd16
DTITLE=BlueImpact - Angel's Feather Original Soundtrack
DYEAR=2003
DGENRE=Soundtrack
TTITLE0=White Revolution
TTITLE1=快適な生活
TTITLE2=平穏な日々
TTITLE3=寂しさの欠片
TTITLE4=うぎゅうぎゅ
TTITLE5=戻れない時間（とき）
TTITLE6=いくぞ！
TTITLE7=異世界
TTITLE8=バトルキッズ
TTITLE9=憎しみ
TTITLE10=覚醒
TTITLE11=休日
TTITLE12=森の木漏れ日
TTITLE13=闇のしずく
TTITLE14=水晶の竪琴
TTITLE15=山水
TTITLE16=ラストステージ
TTITLE17=陰謀
TTITLE18=ラストバトル
TTITLE19=平和の贈り物
TTITLE20=その後
TTITLE21=White Revolution(Full Var.)
EXTD=
EXTT0=
EXTT1=
EXTT2=
EXTT3=
EXTT4=
EXTT5=
EXTT6=
EXTT7=
EXTT8=
EXTT9=
EXTT10=
EXTT11=
EXTT12=
EXTT13=
EXTT14=
EXTT15=
EXTT16=
EXTT17=
EXTT18=
EXTT19=
EXTT20=
EXTT21=
PLAYORDER=
